# xmcd
#
# Track frame offsets:
#	150
#	12744
#	29543
#	43754
#	59655
#	77396
#	92180
#	106808
#	123451
#	139751
#	153559
#	170680
#	185665
#	200686
#	218361
#	231415
#	245110
#
# Disc length: 3456 seconds
#
# Revision: 0
# Processed by: cddbd v1.5.2PL0 Copyright (c) Steve Scherf et al.
# Submitted via: audiograbber 1.83.01
#
DISCID=fa0d7e11
DTITLE=Various Artist - Country Music Messe 2014 CD2
DYEAR=2014
DGENRE=Country
TTITLE0=Mark Merritt and Gitty - Return To Me
TTITLE1=Pretty Rose - Glücklich sein ist nicht verboten
TTITLE2=Rodeo FM - Nice Nurse
TTITLE3=Danny June Smith - Spanish Curtains
TTITLE4=Mike O´Donoghue - Have A Drink On Me
TTITLE5=Nashless - How Long
TTITLE6=René Meijer and Friends - I Should Have Never Said It In The First Place 
TTITLE7=Die Glorreichen Zwei - Always On My Mind
TTITLE8=Jamestown Ferry - Wayfaring Stranger
TTITLE9=Rebel Bunch - Man Forges His Own Destiny
TTITLE10=Fred Heyden - Singing Country Songs With Slim
TTITLE11=Levin Langford - Zeit ohne Ende
TTITLE12=Gitty - Like A River
TTITLE13=Memphis Sky - Southern By The Grace Of God
TTITLE14=Southern Music Inc. - Lovin´ Her Was Easier
TTITLE15=East of Memphis - Never Walk Alone
TTITLE16=The Turnpikes - Moments Of Love
EXTD=
EXTT0=
EXTT1=
EXTT2=
EXTT3=
EXTT4=
EXTT5=
EXTT6=
EXTT7=
EXTT8=
EXTT9=
EXTT10=
EXTT11=
EXTT12=
EXTT13=
EXTT14=
EXTT15=
EXTT16=
PLAYORDER=
